<svg width="120" height="120" viewBox="0 0 120 120" xmlns="http://www.w3.org/2000/svg">
  <defs>
    <linearGradient id="leafGradient" x1="0%" y1="0%" x2="100%" y2="100%">
      <stop offset="0%" style="stop-color:#4CAF50;stop-opacity:1" />
      <stop offset="100%" style="stop-color:#2E7D32;stop-opacity:1" />
    </linearGradient>
    <linearGradient id="techGradient" x1="0%" y1="0%" x2="100%" y2="100%">
      <stop offset="0%" style="stop-color:#00BCD4;stop-opacity:1" />
      <stop offset="100%" style="stop-color:#0097A7;stop-opacity:1" />
    </linearGradient>
  </defs>
  
  <!-- Background circle -->
  <circle cx="60" cy="60" r="55" fill="white" stroke="#E8F5E8" stroke-width="2"/>
  
  <!-- Leaf shapes representing agriculture -->
  <path d="M35 45 Q25 35 35 25 Q45 35 35 45 Z" fill="url(#leafGradient)"/>
  <path d="M50 60 Q40 50 50 40 Q60 50 50 60 Z" fill="url(#leafGradient)"/>
  <path d="M35 75 Q25 65 35 55 Q45 65 35 75 Z" fill="url(#leafGradient)"/>
  
  <!-- Tech elements - circuit/sensor pattern -->
  <rect x="70" y="30" width="20" height="4" rx="2" fill="url(#techGradient)"/>
  <rect x="75" y="25" width="4" height="14" rx="2" fill="url(#techGradient)"/>
  <circle cx="77" cy="32" r="3" fill="url(#techGradient)"/>
  
  <rect x="70" y="55" width="15" height="4" rx="2" fill="url(#techGradient)"/>
  <rect x="72" y="50" width="4" height="14" rx="2" fill="url(#techGradient)"/>
  <circle cx="74" cy="57" r="2" fill="url(#techGradient)"/>
  
  <rect x="70" y="80" width="18" height="4" rx="2" fill="url(#techGradient)"/>
  <rect x="74" y="75" width="4" height="14" rx="2" fill="url(#techGradient)"/>
  <circle cx="76" cy="82" r="2.5" fill="url(#techGradient)"/>
  
  <!-- Connecting lines representing IoT network -->
  <path d="M55 45 L70 35" stroke="url(#techGradient)" stroke-width="2" opacity="0.6"/>
  <path d="M55 60 L70 60" stroke="url(#techGradient)" stroke-width="2" opacity="0.6"/>
  <path d="M50 70 L70 82" stroke="url(#techGradient)" stroke-width="2" opacity="0.6"/>
</svg>
